<svg viewBox="0 0 100 100" xmlns="http://www.w3.org/2000/svg" fill="none" role="img" aria-label="Management Science">
  <rect x="0" y="0" width="100" height="100" rx="22" fill="#fbf8f4"/>
  <g transform="translate(50,50) scale(1.3) translate(-50,-50)">
  <circle cx="50" cy="50" r="17" stroke="#52717a" stroke-width="1.83" stroke-dasharray="3 3" opacity="0.86"></circle>
  <g fill="#e4b169" opacity="0.69">
    <circle cx="26" cy="30" r="1.7"></circle><circle cx="74" cy="28" r="1.7"></circle>
    <circle cx="80" cy="52" r="1.7"></circle><circle cx="28" cy="70" r="1.7"></circle>
    <circle cx="58" cy="80" r="1.7"></circle><circle cx="40" cy="20" r="1.7"></circle>
  </g>
  <g fill="#e4b169" opacity="0.82">
    <circle cx="33" cy="36" r="2"></circle><circle cx="70" cy="38" r="2"></circle>
    <circle cx="68" cy="62" r="2"></circle><circle cx="32" cy="64" r="2"></circle>
    <circle cx="52" cy="26" r="2"></circle>
  </g>
  <g fill="#52717a">
    <circle cx="50" cy="49" r="2.6"></circle><circle cx="45" cy="47" r="2.6"></circle>
    <circle cx="55" cy="46" r="2.6"></circle><circle cx="57" cy="54" r="2.6"></circle>
    <circle cx="47" cy="56" r="2.6"></circle>
  </g>
  </g>
</svg>